<svg xmlns="http://www.w3.org/2000/svg" width="311.899" height="291.707" viewBox="0 0 311.899 291.707">
  <g id="Icon_ionic-ios-apps" data-name="Icon ionic-ios-apps" transform="translate(-4.57 -4.492)">
    <path id="Path_9" data-name="Path 9" d="M305.678,64.318,184.327,9a65.721,65.721,0,0,0-47.842,0L15.22,64.318c-14.293,6.5-14.293,17.117,0,23.639l120.221,54.826a69.059,69.059,0,0,0,50.033,0L305.687,87.956C319.971,81.46,319.971,70.822,305.678,64.318Z" transform="translate(0.07)" fill="#fff" opacity="0.999"/>
    <g id="Group_1" data-name="Group 1" transform="translate(4.533 135.941)">
      <path id="Path_10" data-name="Path 10" d="M108.2,53.266,44,24a10.438,10.438,0,0,0-8.553,0L12.99,34.227c-11.32,5.145-11.32,13.556,0,18.721l95.21,43.42a54.692,54.692,0,0,0,39.625,0l95.2-43.42c11.32-5.148,11.32-13.556,0-18.721L220.582,24a10.438,10.438,0,0,0-8.553,0l-64.2,29.268a54.692,54.692,0,0,1-39.625,0Z" transform="translate(28.02 60.176)" fill="#fff" opacity="0.5"/>
      <path id="Path_11" data-name="Path 11" d="M274.692,27.406l-23.1-10.493a11.652,11.652,0,0,0-9.618,0l-78.68,35.625a64.317,64.317,0,0,1-37.812,0L46.815,16.914a11.652,11.652,0,0,0-9.618,0L14.108,27.407c-12.819,5.825-12.819,15.351,0,21.2L121.925,97.783a61.937,61.937,0,0,0,44.874,0L274.615,48.608C287.51,42.773,287.51,33.232,274.692,27.406Z" transform="translate(11.592 -15.875)" fill="#fff" opacity="0.75"/>
    </g>
  </g>
</svg>
